<?xml version="1.0" encoding="UTF-8"?><svg id="uuid-69e4b013-8f5f-4941-ae7f-136c27911596" xmlns="http://www.w3.org/2000/svg" viewBox="0 0 100 50" width="100" height="50"><path d="m47,25c0,12.7-10.3,23-23,23S1,37.7,1,25,11.3,2,24,2s23,10.3,23,23Z" fill="#c5112f"/><path d="m12.18,15.03c.5-.74,1-1.33,1.49-1.76.49-.43.97-.77,1.42-1.01.46-.24.88-.4,1.28-.47.4-.07.75-.11,1.06-.11,1.15,0,2.03.21,2.65.63.61.42,1.04,1.01,1.3,1.76s.37,1.64.36,2.65c-.01,1.01-.05,2.1-.13,3.28-.02.22-.04.5-.05.86s-.03.78-.05,1.26c1.34.14,2.64.23,3.89.27,1.25.04,2.48.03,3.71-.02-.05-1.97-.13-3.82-.25-5.56-.12-1.74-.29-3.19-.5-4.34,1.39-.1,2.55.16,3.47.77.92.61,1.66,1.46,2.2,2.54s.9,2.35,1.08,3.8c.18,1.45.21,2.96.09,4.54-.12,1.57-.37,3.14-.74,4.7-.37,1.56-.84,2.99-1.4,4.3-.56,1.31-1.21,2.44-1.93,3.38-.72.95-1.49,1.59-2.3,1.93.05-.46.09-1.08.13-1.87.04-.79.07-1.7.11-2.74s.06-2.15.07-3.37c.01-1.21.02-2.45.02-3.73-1.25.46-2.55.68-3.91.67-1.36-.01-2.61-.33-3.76-.95,0,1.13.02,2.27.05,3.44.04,1.16.09,2.27.16,3.31.07,1.04.16,1.97.27,2.79.11.82.26,1.43.45,1.84-1.32-.02-2.38-.14-3.19-.34-.8-.2-1.43-.54-1.87-1.03-.44-.48-.74-1.12-.9-1.93-.16-.8-.23-1.82-.23-3.04,0-2.52,0-4.69-.02-6.5s-.06-3.33-.14-4.55-.21-2.2-.38-2.93c-.17-.73-.4-1.28-.7-1.66-.3-.37-.68-.61-1.13-.7-.46-.1-1.01-.13-1.66-.11Z" fill="#fff"/><path d="m50.89,21.14c0-2.59,1.58-4.3,4.87-4.3h4.44v1.97h-4.42c-2.04,0-2.62.94-2.62,2.47v2.76h6.31v1.94h-6.31v3.19c0,1.54.58,2.47,2.62,2.47h4.51v1.42c0,.34-.22.53-.53.53h-4.01c-3.26,0-4.87-1.7-4.87-4.27v-8.18Zm11.74-4.3h2.28v14.81h7.61v1.42c0,.34-.19.53-.53.53h-9.36v-16.75Zm11.95,0h2.28v14.81h7.61v1.42c0,.34-.19.53-.53.53h-9.36v-16.75Zm11.06,6.6c0-4.08,2.4-6.91,6.43-6.91s6.41,2.83,6.41,6.91v3.55c0,4.15-2.38,6.91-6.41,6.91s-6.43-2.76-6.43-6.91v-3.55Zm6.43,8.52c3.14,0,4.08-2.42,4.08-5.21v-3.07c0-2.76-.94-5.18-4.08-5.18s-4.1,2.42-4.1,5.18v3.07c0,2.79.96,5.21,4.1,5.21Z"/></svg>
